# xmcd
#
# Track frame offsets: 
#        150
#        25390
#        44000
#        67172
#        86454
#        107780
#        131015
#        152340
#        176837
#        194357
#
# Disc length: 2862 seconds
#
# Revision: 1
# Processed by: cddbd v1.5.1PL0 Copyright (c) Steve Scherf et al.
# Submitted via: ExactAudioCopy v0.95a5
#
DISCID=8b0b2c0a
DTITLE=Orhan Gencebay - Batsýn Bu Dünya
DYEAR=1975
DGENRE=Arabesk
TTITLE0=Batsýn Bu Dünya
TTITLE1=Hayat Kavgasý
TTITLE2=Benim Dünyam
TTITLE3=Ben Doðarken Ölmüþüm
TTITLE4=Sevmiyorum Deme
TTITLE5=Duyun Beni
TTITLE6=Bir Araya Gelemeyiz
TTITLE7=Dertler Benim Olsun
TTITLE8=Gönül
TTITLE9=Sen Hayatsýn Ben Ömür
EXTD=Necati Göksel
EXTT0=
EXTT1=
EXTT2=
EXTT3=
EXTT4=
EXTT5=
EXTT6=
EXTT7=
EXTT8=
EXTT9=
PLAYORDER=
